<svg width="88" height="88" viewBox="0 0 88 88" fill="none" xmlns="http://www.w3.org/2000/svg">
<path d="M43.75 0.25C19.5898 0.25 0 19.8398 0 44C0 68.1602 19.5898 87.75 43.75 87.75C67.9102 87.75 87.5 68.1602 87.5 44C87.5 19.8398 67.9102 0.25 43.75 0.25ZM43.75 80.3281C23.6914 80.3281 7.42188 64.0586 7.42188 44C7.42188 23.9414 23.6914 7.67188 43.75 7.67188C63.8086 7.67188 80.0781 23.9414 80.0781 44C80.0781 64.0586 63.8086 80.3281 43.75 80.3281ZM48.4082 41.7344L45.9277 41.1582V28.043C49.6387 28.5508 51.9336 30.875 52.3242 33.7266C52.373 34.1172 52.7051 34.4004 53.0957 34.4004H57.4805C57.9394 34.4004 58.3008 34 58.2617 33.541C57.666 27.457 52.6562 23.5508 45.9668 22.877V19.6836C45.9668 19.2539 45.6152 18.9023 45.1855 18.9023H42.4414C42.0117 18.9023 41.6602 19.2539 41.6602 19.6836V22.9062C34.7461 23.5801 29.3359 27.3984 29.3359 34.5273C29.3359 41.1289 34.1992 44.3125 39.3066 45.5332L41.7188 46.1484V60.084C37.4023 59.5078 34.9805 57.2031 34.4824 54.0977C34.4238 53.7266 34.0918 53.4531 33.7109 53.4531H29.1992C28.7402 53.4531 28.3789 53.8438 28.418 54.3027C28.8574 59.6738 32.9297 64.6152 41.6211 65.25V68.3164C41.6211 68.7461 41.9727 69.0977 42.4023 69.0977H45.1758C45.6055 69.0977 45.957 68.7461 45.957 68.3066L45.9375 65.2109C53.584 64.5371 59.0527 60.4453 59.0527 53.1016C59.043 46.3242 54.7363 43.2969 48.4082 41.7344ZM41.709 40.1523C41.1621 39.9961 40.7031 39.8496 40.2441 39.6641C36.9434 38.4727 35.4102 36.5488 35.4102 34.0684C35.4102 30.5234 38.0957 28.502 41.709 28.043V40.1523ZM45.9277 60.1133V47.0566C46.2305 47.1445 46.5039 47.2129 46.7871 47.2715C51.4062 48.6777 52.959 50.6309 52.959 53.6289C52.959 57.4473 50.0879 59.7422 45.9277 60.1133Z" fill="white"/>
</svg>
