<svg width="75" height="85" viewBox="0 0 75 85" fill="none" xmlns="http://www.w3.org/2000/svg">
<path d="M10 5H50C51.3261 5 52.5979 5.52678 53.5355 6.46447C54.4732 7.40215 55 8.67392 55 10V35.11C56.715 35.265 58.39 35.58 60 36.035V10C60 7.34784 58.9464 4.8043 57.0711 2.92893C55.1957 1.05357 52.6522 0 50 0H10C7.34784 0 4.8043 1.05357 2.92893 2.92893C1.05357 4.8043 0 7.34784 0 10V70C0 72.6522 1.05357 75.1957 2.92893 77.0711C4.8043 78.9464 7.34784 80 10 80H31.285C30.0115 78.4577 28.91 76.7811 28 75H10C8.67392 75 7.40215 74.4732 6.46447 73.5355C5.52679 72.5979 5 71.3261 5 70H26.035C25.5723 68.3656 25.2627 66.6917 25.11 65H5V10C5 8.67392 5.52679 7.40215 6.46447 6.46447C7.40215 5.52678 8.67392 5 10 5Z" fill="white"/>
<path d="M15 10C13.6739 10 12.4021 10.5268 11.4645 11.4645C10.5268 12.4021 10 13.6739 10 15V20C10 21.3261 10.5268 22.5978 11.4645 23.5355C12.4021 24.4732 13.6739 25 15 25H45C46.3261 25 47.5979 24.4732 48.5355 23.5355C49.4732 22.5978 50 21.3261 50 20V15C50 13.6739 49.4732 12.4021 48.5355 11.4645C47.5979 10.5268 46.3261 10 45 10H15ZM45 15V20H15V15H45Z" fill="white"/>
<path d="M75 62.5C75 68.4674 72.6295 74.1903 68.4099 78.4099C64.1903 82.6295 58.4674 85 52.5 85C46.5326 85 40.8097 82.6295 36.5901 78.4099C32.3705 74.1903 30 68.4674 30 62.5C30 56.5326 32.3705 50.8097 36.5901 46.5901C40.8097 42.3705 46.5326 40 52.5 40C58.4674 40 64.1903 42.3705 68.4099 46.5901C72.6295 50.8097 75 56.5326 75 62.5ZM50.1 52.67C49.7758 52.4473 49.399 52.3132 49.0071 52.2807C48.6151 52.2483 48.2214 52.3187 47.865 52.485C47.5741 52.613 47.3109 52.7964 47.09 53.025C46.6242 53.5023 46.3639 54.1431 46.365 54.81V70.185C46.3619 70.5164 46.4244 70.8452 46.5488 71.1524C46.6733 71.4596 46.8572 71.7391 47.09 71.975C47.3182 72.2019 47.5838 72.388 47.875 72.525C48.3823 72.7574 48.9579 72.7931 49.49 72.625C49.7205 72.5491 49.9393 72.4414 50.14 72.305L61.62 64.47C61.9693 64.2399 62.2507 63.9205 62.435 63.545C62.625 63.1668 62.7226 62.7489 62.72 62.3257C62.7174 61.9025 62.6146 61.4859 62.42 61.11C62.2245 60.7399 61.9369 60.4265 61.585 60.2L50.1 52.67Z" fill="white"/>
</svg>
