<svg width="88" height="88" viewBox="0 0 88 88" fill="none" xmlns="http://www.w3.org/2000/svg">
<path d="M12.75 12.75C12.75 9.43479 14.067 6.25537 16.4112 3.91117C18.7554 1.56696 21.9348 0.25 25.25 0.25C28.5652 0.25 31.7446 1.56696 34.0888 3.91117C36.433 6.25537 37.75 9.43479 37.75 12.75C37.75 16.0652 36.433 19.2446 34.0888 21.5888C31.7446 23.933 28.5652 25.25 25.25 25.25C21.9348 25.25 18.7554 23.933 16.4112 21.5888C14.067 19.2446 12.75 16.0652 12.75 12.75ZM25.25 6.5C23.5924 6.5 22.0027 7.15848 20.8306 8.33058C19.6585 9.50268 19 11.0924 19 12.75C19 14.4076 19.6585 15.9973 20.8306 17.1694C22.0027 18.3415 23.5924 19 25.25 19C26.9076 19 28.4973 18.3415 29.6694 17.1694C30.8415 15.9973 31.5 14.4076 31.5 12.75C31.5 11.0924 30.8415 9.50268 29.6694 8.33058C28.4973 7.15848 26.9076 6.5 25.25 6.5Z" fill="white"/>
<path d="M55.1187 22.6498C53.8093 21.6511 52.7101 20.4034 51.8844 18.9785C51.0587 17.5536 50.5227 15.9795 50.3072 14.3468C50.0917 12.7141 50.2009 11.0549 50.6287 9.4646C51.0564 7.87425 51.7942 6.3841 52.7996 5.07977C53.805 3.77544 55.0583 2.68264 56.4873 1.86417C57.9164 1.0457 59.4931 0.517681 61.1269 0.310465C62.7607 0.103249 64.4193 0.220916 66.0074 0.656707C67.5956 1.0925 69.082 1.83782 70.3812 2.84985C72.9393 4.89612 74.5918 7.86481 74.9833 11.1172C75.3748 14.3695 74.474 17.6456 72.4746 20.2404C70.4752 22.8353 67.537 24.5416 64.2924 24.9922C61.0477 25.4428 57.7558 24.6017 55.1249 22.6498H55.1187ZM62.7499 6.49985C61.0923 6.49985 59.5026 7.15833 58.3305 8.33043C57.1584 9.50253 56.4999 11.0922 56.4999 12.7498C56.4999 14.4074 57.1584 15.9972 58.3305 17.1693C59.5026 18.3414 61.0923 18.9998 62.7499 18.9998C64.4075 18.9998 65.9973 18.3414 67.1694 17.1693C68.3415 15.9972 68.9999 14.4074 68.9999 12.7498C68.9999 11.0922 68.3415 9.50253 67.1694 8.33043C65.9973 7.15833 64.4075 6.49985 62.7499 6.49985Z" fill="white"/>
<path d="M9.625 31.5H26.3125C25.625 33.4563 25.25 35.5625 25.25 37.75H9.625C8.7962 37.75 8.00134 38.0792 7.41529 38.6653C6.82924 39.2513 6.5 40.0462 6.5 40.875C6.5 45.9813 8.53125 49.7688 11.7375 52.3438C13.2125 53.5313 14.9813 54.4875 16.9813 55.1875C15.5126 56.7486 14.3808 58.5953 13.6562 60.6125C11.5583 59.7698 9.59405 58.6266 7.825 57.2188C3.125 53.4375 0.25 47.85 0.25 40.875C0.25 38.3886 1.23772 36.004 2.99587 34.2459C4.75403 32.4877 7.1386 31.5 9.625 31.5Z" fill="white"/>
<path d="M33.175 31.4999C31.5174 34.3725 31.0688 37.7859 31.928 40.9893C32.7872 44.1926 34.8836 46.9235 37.7563 48.5811C40.6289 50.2387 44.0423 50.6873 47.2457 49.8281C50.4491 48.969 53.1799 46.8725 54.8375 43.9999C56.4951 41.1272 56.9437 37.7138 56.0845 34.5104C55.2254 31.3071 53.1289 28.5762 50.2563 26.9186C47.3836 25.261 43.9702 24.8124 40.7668 25.6716C37.5635 26.5307 34.8326 28.6272 33.175 31.4999ZM42.6 31.6561C43.5158 31.4492 44.4663 31.4507 45.3814 31.6604C46.2965 31.8701 47.1528 32.2826 47.8871 32.8675C48.6214 33.4524 49.215 34.1948 49.6239 35.0399C50.0329 35.8849 50.2469 36.8111 50.25 37.7499C50.2495 38.9258 49.9173 40.0778 49.2915 41.0734C48.6657 42.069 47.7717 42.8678 46.7122 43.3782C45.6527 43.8885 44.4708 44.0895 43.3022 43.9582C42.1336 43.8269 41.0257 43.3686 40.1059 42.6359C39.1861 41.9032 38.4917 40.9259 38.1024 39.8162C37.7131 38.7066 37.6448 37.5096 37.9053 36.3628C38.1658 35.2161 38.7445 34.1661 39.575 33.3335C40.4054 32.5009 41.4539 31.9195 42.6 31.6561Z" fill="white"/>
<path d="M76.2625 52.3438C74.7875 53.5313 73.0188 54.4875 71.0188 55.1875C72.4852 56.7492 73.6149 58.5958 74.3375 60.6125C76.4625 59.7438 78.4313 58.6125 80.175 57.2188C84.875 53.4375 87.75 47.85 87.75 40.875C87.75 38.3886 86.7623 36.004 85.0041 34.2459C83.246 32.4877 80.8614 31.5 78.375 31.5H61.6875C62.375 33.4563 62.75 35.5625 62.75 37.75H78.375C79.2038 37.75 79.9987 38.0792 80.5847 38.6653C81.1708 39.2513 81.5 40.0462 81.5 40.875C81.5 45.9813 79.4687 49.7688 76.2625 52.3438Z" fill="white"/>
<path d="M59.625 56.4997C62.1114 56.4997 64.496 57.4874 66.2542 59.2456C68.0123 61.0038 69 63.3883 69 65.8747C69 72.8497 66.1313 78.4372 61.425 82.2185C56.7938 85.9372 50.5813 87.7497 44 87.7497C37.4188 87.7497 31.2063 85.9372 26.575 82.2185C21.875 78.4372 19 72.8497 19 65.8747C18.9967 64.6427 19.237 63.4221 19.7069 62.2832C20.1769 61.1443 20.8673 60.1095 21.7386 59.2382C22.6098 58.367 23.6446 57.6766 24.7835 57.2066C25.9224 56.7367 27.143 56.4964 28.375 56.4997H59.625ZM59.625 62.7497H28.375C27.5462 62.7497 26.7514 63.079 26.1653 63.665C25.5793 64.2511 25.25 65.0459 25.25 65.8747C25.25 70.981 27.2813 74.7685 30.4875 77.3435C33.775 79.981 38.5 81.4997 44 81.4997C49.5 81.4997 54.225 79.981 57.5125 77.3435C60.7188 74.7685 62.75 70.981 62.75 65.8747C62.75 65.0459 62.4208 64.2511 61.8347 63.665C61.2487 63.079 60.4538 62.7497 59.625 62.7497Z" fill="white"/>
</svg>
