<svg width="84" height="68" viewBox="0 0 84 68" fill="none" xmlns="http://www.w3.org/2000/svg">
<path d="M76.9168 19.7083L71.7918 27.4166C74.2634 32.3461 75.4734 37.8118 75.3134 43.3238C75.1534 48.8359 73.6285 54.2221 70.8752 59H13.1252C9.54668 52.7921 8.06388 45.5963 8.89657 38.4794C9.72925 31.3625 12.8331 24.7034 17.748 19.4893C22.6628 14.2751 29.1271 10.7835 36.1824 9.53204C43.2377 8.2806 50.5085 9.33595 56.9168 12.5416L64.6252 7.41664C56.7772 2.38421 47.4682 0.129163 38.1872 1.01221C28.9062 1.89526 20.1895 5.86538 13.4314 12.2875C6.67324 18.7097 2.26416 27.2128 0.909387 36.4367C-0.445381 45.6606 1.33244 55.0724 5.95848 63.1666C6.68561 64.4261 7.72969 65.4734 8.98694 66.2044C10.2442 66.9353 11.6709 67.3245 13.1252 67.3333H70.8335C72.3019 67.3391 73.7458 66.9568 75.0189 66.2252C76.2921 65.4935 77.3493 64.4383 78.0835 63.1666C81.9226 56.5163 83.8492 48.9344 83.6507 41.2581C83.4521 33.5818 81.1362 26.1096 76.9585 19.6666L76.9168 19.7083ZM36.1252 48.2083C36.8991 48.9831 37.8182 49.5978 38.8298 50.0171C39.8415 50.4365 40.9259 50.6524 42.021 50.6524C43.1161 50.6524 44.2005 50.4365 45.2122 50.0171C46.2238 49.5978 47.1429 48.9831 47.9168 48.2083L71.5002 12.8333L36.1252 36.4166C35.3503 37.1906 34.7357 38.1097 34.3163 39.1213C33.897 40.133 33.6811 41.2173 33.6811 42.3125C33.6811 43.4076 33.897 44.492 34.3163 45.5036C34.7357 46.5153 35.3503 47.4344 36.1252 48.2083Z" fill="white"/>
</svg>
